<mxfile host="65bd71144e">
    <diagram id="uYJFZ_60_HJJ-vtOUY0J" name="proccess-tree-and-operate">
        <mxGraphModel dx="1211" dy="932" grid="1" gridSize="10" guides="1" tooltips="1" connect="1" arrows="1" fold="1" page="1" pageScale="1" pageWidth="827" pageHeight="1169" background="#ffffff" math="0" shadow="0">
            <root>
                <mxCell id="UVgFr4VgrDs2HpoLc4kV-0"/>
                <mxCell id="UVgFr4VgrDs2HpoLc4kV-1" parent="UVgFr4VgrDs2HpoLc4kV-0"/>
                <mxCell id="radDfmzUJBzaBCt03nPj-68" value="" style="rounded=0;whiteSpace=wrap;html=1;labelBackgroundColor=#FFCCE6;fontColor=#CCFFCC;dashed=1;" parent="UVgFr4VgrDs2HpoLc4kV-1" vertex="1">
                    <mxGeometry x="190" y="20" width="185" height="50" as="geometry"/>
                </mxCell>
                <mxCell id="radDfmzUJBzaBCt03nPj-67" style="edgeStyle=orthogonalEdgeStyle;rounded=0;html=1;entryX=0.5;entryY=1;entryDx=0;entryDy=0;fontColor=#CCFFCC;endArrow=block;endFill=0;" parent="UVgFr4VgrDs2HpoLc4kV-1" edge="1">
                    <mxGeometry relative="1" as="geometry">
                        <mxPoint x="255" y="48" as="sourcePoint"/>
                        <mxPoint x="207.5" y="28" as="targetPoint"/>
                        <Array as="points">
                            <mxPoint x="208" y="48"/>
                        </Array>
                    </mxGeometry>
                </mxCell>
                <mxCell id="radDfmzUJBzaBCt03nPj-69" value="parent proccess" style="text;html=1;strokeColor=none;fillColor=none;align=left;verticalAlign=middle;whiteSpace=wrap;rounded=0;dashed=1;labelBackgroundColor=#FFFFFF;fontColor=#000000;" parent="UVgFr4VgrDs2HpoLc4kV-1" vertex="1">
                    <mxGeometry x="265" y="23" width="104.5" height="27" as="geometry"/>
                </mxCell>
                <mxCell id="radDfmzUJBzaBCt03nPj-121" value="PID Namespace: main" style="text;html=1;strokeColor=none;fillColor=none;align=center;verticalAlign=middle;whiteSpace=wrap;rounded=0;" parent="UVgFr4VgrDs2HpoLc4kV-1" vertex="1">
                    <mxGeometry x="84.75" y="130.5" width="150" height="30" as="geometry"/>
                </mxCell>
                <mxCell id="radDfmzUJBzaBCt03nPj-122" value="PID Namespace: new" style="text;html=1;strokeColor=none;fillColor=none;align=center;verticalAlign=middle;whiteSpace=wrap;rounded=0;" parent="UVgFr4VgrDs2HpoLc4kV-1" vertex="1">
                    <mxGeometry x="314.75" y="130" width="150" height="30" as="geometry"/>
                </mxCell>
                <mxCell id="radDfmzUJBzaBCt03nPj-123" value="main" style="rounded=0;whiteSpace=wrap;html=1;" parent="UVgFr4VgrDs2HpoLc4kV-1" vertex="1">
                    <mxGeometry x="67.25" y="195.5" width="185" height="72.5" as="geometry"/>
                </mxCell>
                <mxCell id="radDfmzUJBzaBCt03nPj-124" style="edgeStyle=orthogonalEdgeStyle;rounded=0;html=1;exitX=0;exitY=0.5;exitDx=0;exitDy=0;entryX=1;entryY=0.5;entryDx=0;entryDy=0;fontColor=#CCFFCC;endArrow=block;endFill=0;" parent="UVgFr4VgrDs2HpoLc4kV-1" source="radDfmzUJBzaBCt03nPj-125" target="radDfmzUJBzaBCt03nPj-123" edge="1">
                    <mxGeometry relative="1" as="geometry"/>
                </mxCell>
                <mxCell id="radDfmzUJBzaBCt03nPj-125" value="a (init)&lt;br&gt;&lt;i style=&quot;text-align: left ; background-color: rgb(204 , 229 , 255)&quot;&gt;PID Namespace new: 1&lt;/i&gt;" style="rounded=0;whiteSpace=wrap;html=1;" parent="UVgFr4VgrDs2HpoLc4kV-1" vertex="1">
                    <mxGeometry x="296.75" y="193.63" width="186" height="76.25" as="geometry"/>
                </mxCell>
                <mxCell id="radDfmzUJBzaBCt03nPj-127" style="edgeStyle=orthogonalEdgeStyle;rounded=0;html=1;entryX=1;entryY=0.5;entryDx=0;entryDy=0;fontColor=#CCFFCC;endArrow=block;endFill=0;" parent="UVgFr4VgrDs2HpoLc4kV-1" source="radDfmzUJBzaBCt03nPj-129" target="radDfmzUJBzaBCt03nPj-135" edge="1">
                    <mxGeometry relative="1" as="geometry"/>
                </mxCell>
                <mxCell id="radDfmzUJBzaBCt03nPj-129" value="b" style="rounded=0;whiteSpace=wrap;html=1;" parent="UVgFr4VgrDs2HpoLc4kV-1" vertex="1">
                    <mxGeometry x="295.88" y="336.13" width="186" height="67.25" as="geometry"/>
                </mxCell>
                <mxCell id="radDfmzUJBzaBCt03nPj-135" value="init&lt;br&gt;&lt;i style=&quot;text-align: left ; background-color: rgb(204 , 255 , 204)&quot;&gt;PID Namespace main: 1&lt;/i&gt;" style="rounded=0;whiteSpace=wrap;html=1;" parent="UVgFr4VgrDs2HpoLc4kV-1" vertex="1">
                    <mxGeometry x="61.75" y="333.5" width="185" height="72.5" as="geometry"/>
                </mxCell>
                <mxCell id="1" style="edgeStyle=orthogonalEdgeStyle;html=1;exitX=0;exitY=0.5;exitDx=0;exitDy=0;entryX=0;entryY=0.5;entryDx=0;entryDy=0;endArrow=block;endFill=0;rounded=0;" edge="1" parent="UVgFr4VgrDs2HpoLc4kV-1" source="0" target="radDfmzUJBzaBCt03nPj-123">
                    <mxGeometry relative="1" as="geometry">
                        <Array as="points">
                            <mxPoint x="31.75" y="484"/>
                            <mxPoint x="31.75" y="232"/>
                        </Array>
                    </mxGeometry>
                </mxCell>
                <mxCell id="0" value="c" style="rounded=0;whiteSpace=wrap;html=1;" vertex="1" parent="UVgFr4VgrDs2HpoLc4kV-1">
                    <mxGeometry x="296.75" y="450" width="186" height="67.25" as="geometry"/>
                </mxCell>
                <mxCell id="3" style="edgeStyle=orthogonalEdgeStyle;rounded=0;html=1;exitX=1;exitY=0.5;exitDx=0;exitDy=0;entryX=1;entryY=0.5;entryDx=0;entryDy=0;endArrow=block;endFill=0;" edge="1" parent="UVgFr4VgrDs2HpoLc4kV-1" source="2" target="radDfmzUJBzaBCt03nPj-125">
                    <mxGeometry relative="1" as="geometry">
                        <Array as="points">
                            <mxPoint x="530" y="585"/>
                            <mxPoint x="530" y="232"/>
                        </Array>
                    </mxGeometry>
                </mxCell>
                <mxCell id="2" value="d" style="rounded=0;whiteSpace=wrap;html=1;" vertex="1" parent="UVgFr4VgrDs2HpoLc4kV-1">
                    <mxGeometry x="295.88" y="551" width="186" height="67.25" as="geometry"/>
                </mxCell>
            </root>
        </mxGraphModel>
    </diagram>
</mxfile>